<svg width="1177" height="1080" viewBox="0 0 1177 1080" fill="none" xmlns="http://www.w3.org/2000/svg">
  <g clip-path="url(#clip0_243_237)">
    <path
      d="M118 311.1C81.8 105.7 289.2 88.1 520.4 102.7C613.2 108.6 799.7 129.3 866.3 196.8C931.9 265.1 916.4 532.6 818.1 568.2C756.637 590.16 638.469 603.997 523 609.986C504.346 610.954 495 635 547 685C378.5 643.5 415.5 609.986 415.5 613.329C386.791 613.602 359.617 613.324 335.1 612.5C177.3 607.2 155.6 524.3 118 311.1Z"
      fill="rgba(255,247,237,0.624)" />
    <path
      d="M695.4 892.5C695.4 892.5 607.4 787.4 594 769.5C580.7 751.5 608.9 748.3 608.9 748.3L757 867C784.9 932.4 695.4 892.5 695.4 892.5Z"
      fill="#EC9568" />
    <path
      d="M588.5 592.9C588.5 592.9 664.6 544.9 621.1 449.9C597 397.3 628 264.5 719.6 317.3C811.2 370.2 791 315.1 842.8 344.6C894.6 374 914.6 411.7 902.9 449C891.2 486.3 887.6 559.5 919.5 577.3C951.3 595.1 1102.6 691.6 988 778.4C873.4 865.2 506 749.6 588.5 592.9V592.9Z"
      fill="#212957" />
    <path
      d="M793.6 818.7C792.5 874 777 864.3 749.1 855.6C721.2 846.8 715.7 795 715 780.6C714.3 766.1 713.8 690.1 720.4 635.3C725.1 595.8 723.4 588.5 750.1 580.6C792.3 568.2 794.6 763.4 793.6 818.7V818.7Z"
      fill="#EA580C" />
    <path
      d="M729.5 1676.3C729.5 1676.3 721.3 1439.3 700.9 1286C680.4 1132.7 684.5 879.3 684.5 879.3H711.1L801 985.6C801 985.6 782.6 1296.2 778.5 1320.7C774.4 1345.3 776.5 1375.9 786.7 1425C796.9 1474 772.4 1670.2 772.4 1670.2L729.5 1676.3Z"
      fill="#9A3412" />
    <path
      d="M841.9 873.2C841.9 873.2 909.3 959 927.7 1036.7C946.1 1114.3 982.9 1304.4 987 1318.7C991.1 1333 1021.7 1422.9 1029.9 1445.4C1038.1 1467.9 1087.4 1661.3 1087.4 1661.3L1031.9 1670.2C1031.9 1670.2 948.2 1465.8 933.9 1418.8C919.5 1371.8 879.3 1314.5 879.3 1314.5C879.3 1314.5 766.3 1051 739.7 981.5C713.1 912 711.1 879.3 711.1 879.3L841.9 873.2Z"
      fill="#C2410C" />
    <path
      d="M843.9 583C843.9 583 885.8 596.3 894 610.6C902.2 624.9 886.8 660.6 866.4 711.7C846 762.8 827.6 811.9 848 863C868.5 914.1 727.7 942.4 685.6 917.5C671.9 909.4 676.4 801.7 676.4 801.7C676.4 801.7 672.3 711.7 670.2 685.2C668.2 658.6 698.8 650.4 725.4 623.9C752 597.3 762.2 580.9 762.2 580.9C762.2 580.9 833.7 578.9 843.9 583V583Z"
      fill="#F97316" />
    <path
      d="M942 834.3C946.1 889.5 929.8 881.4 901.2 875.2C872.5 869.1 862.3 818 860.3 803.7C858.2 789.4 850.7 713.8 852.1 658.6C853.1 618.7 850.8 611.7 876.6 601.4C917.5 585 937.9 779.2 942 834.3V834.3Z"
      fill="#EA580C" />
    <path
      d="M628.5 757.8L585.8 658.2C583.6 653.2 586 648.9 591.1 648.7L636.2 646.1C641.3 645.9 647.2 649.7 649.3 654.6L692 754.3C694.1 759.2 691.7 763.5 686.7 763.8L641.6 766.3C636.5 766.6 630.6 762.8 628.5 757.8Z"
      fill="#FFEDD5" />
    <path
      d="M929.7 849.2C929.7 849.2 928.2 866.8 928.2 870.6C928.2 874.5 911.3 879.1 893.7 879.1C876.1 879.1 745.8 804 733.5 798.6C721.3 793.2 692.9 785.6 686 784.8C679.1 784 673.8 764.9 677.6 752.6C680.1 744.5 682.7 737.4 686.5 735.1C688.5 733.9 690.8 733.9 693.7 735.7C702.1 741.1 735.8 770.2 735.8 770.2C735.8 770.2 814.8 784.8 846.2 798.6C877.6 812.4 914.4 829.2 929.7 849.2Z"
      fill="#F7B68B" />
    <path
      d="M646.2 740.3L686.5 735.1L677.6 752.6L683 779.4L660.7 783.3C660.7 783.3 657.7 779.4 661.5 777.9C665.3 776.4 670.7 774.1 670.7 774.1C670.7 774.1 660 772.5 655.4 771.8C650.8 771 650 769.5 650 767.2C650 764.9 654.6 763.3 654.6 763.3C654.6 763.3 646.2 760.3 645.4 758C644.6 755.7 643.1 752.6 644.6 750.3C646.2 748 643.9 741.9 646.2 740.3V740.3Z"
      fill="#EC9568" />
    <path
      d="M838.8 482.8C838.8 482.8 825 551.8 834.2 576.3C843.4 600.9 771.4 582.5 771.4 582.5C771.4 582.5 774.4 525.8 776 513.5C777.5 501.2 838.8 482.8 838.8 482.8Z"
      fill="#F7B68B" />
    <path
      d="M773.3 548.9C774.2 534.2 775.3 519.2 776 513.5C777.5 501.2 838.8 482.8 838.8 482.8C838.8 482.8 837.8 488.1 836.4 496.3C834.867 497.767 833.233 499.233 831.5 500.7C816.3 513.6 791.3 544.7 773.3 548.9Z"
      fill="#EC9568" />
    <path
      d="M599.8 713.4L618.9 687.6L648 660.4C648 660.4 651.8 664.5 647.2 671.2C642.7 677.9 625.8 697.7 625.8 697.7L617.4 711.5L615.8 714.3C615.8 714.3 603.9 726.5 599.8 713.4V713.4Z"
      fill="#F0BF97" />
    <path
      d="M615.2 708.1C615.2 708.1 615 716.9 616.9 717.5C618.8 718.2 621.5 715.1 625.7 711.9C629.9 708.6 642.2 698.4 642.2 698.4L661.2 686.9C661.2 686.9 659.8 695.3 657.5 698.1C654.3 702.1 645.9 709.6 645.9 709.6L628.6 727.8C628.6 727.8 614.7 738.9 613.1 735.9C611.5 732.9 612.9 728.4 609.9 726.7C606.9 724.9 599.9 718.7 615.2 708.1V708.1Z"
      fill="#F0BF97" />
    <path
      d="M638.4 726L650.5 715.4C650.5 715.4 664.5 705.4 665.4 707.1C666.3 708.8 666.3 708.8 666.3 708.8C666.3 708.8 663.2 712.8 659 717.5C657.4 719.2 650.1 726.8 648.2 728.5C641.4 734.8 635.6 744.4 634.4 745C633.1 745.7 617.8 746 638.4 726V726Z"
      fill="#F0BF97" />
    <path
      d="M592.4 715.6L592 690.1L607.8 661.1C607.8 661.1 611.8 665.6 608.4 675.6C605 685.5 605.1 686.6 604 687.7C603 688.8 607.2 705.1 607.2 705.1C607.2 705.1 593.6 720.9 592.4 715.6V715.6Z"
      fill="#F0BF97" />
    <path
      d="M624.1 724.2C626.8 724.9 626.7 730.3 630 732.5C632.8 734.4 639.6 732.7 638.2 737C637.1 740.7 633.5 752.6 625.8 759.3C618.1 766 607.2 765.7 600.4 766C593.6 766.2 589.6 756.3 589.6 756.3C589.6 756.3 591.3 741.2 590.9 725.1C590.5 708.9 598.8 708.4 598.8 708.4L611.9 723.4C611.9 723.4 619.2 722.9 624.1 724.2V724.2Z"
      fill="#F0BF97" />
    <path
      d="M837.3 895.1C837.3 895.1 856.2 914 878.2 959.1C891.7 986.7 906.3 1024.1 918.5 1072.9C960.6 1241.2 969.1 1304.4 969.1 1304.4C969.1 1304.4 1019.9 1445.4 1044.2 1542C1073.1 1656.5 1068.7 1638.5 1068.7 1638.5"
      stroke="#9A3412" stroke-width="4.3" />
    <path d="M806.6 915.9C806.6 915.9 838.7 977.3 884.1 972.5" stroke="#9A3412" stroke-width="4.3" />
    <path
      d="M759.1 438.4C795.9 461.4 843.4 453.7 843.4 449.1C843.4 444.5 851.1 432.3 857.2 447.6C863.3 462.9 851.1 475.2 834.2 485.9C817.4 496.6 788.2 524.2 769.8 525.8C751.5 527.3 748.4 513.5 740.7 495.1C733.1 476.7 737.7 413.9 737.7 413.9C736.1 423.1 749.9 432.7 759.1 438.4V438.4Z"
      fill="#F7B68B" />
    <path
      d="M658.1 209.5C658.1 202.6 663.7 197 670.6 197H804.2C811.1 197 816.7 202.6 816.7 209.5V313.9C816.7 320.8 811.1 326.4 804.2 326.4H708.2L679 355.6V326.4H670.6C663.7 326.4 658.1 320.8 658.1 313.9V209.5Z"
      fill="#FB923C" />
    <path d="M683.1 234.6H791.7V242.9H683.1V234.6Z" fill="#FFF7ED" />
    <path d="M683.1 255.4H791.7V263.8H683.1V255.4Z" fill="#FFF7ED" />
    <path d="M683.1 276.3H791.7V284.7H683.1V276.3Z" fill="#FFF7ED" />
    <path
      d="M160.7 543.3V445.1C160.7 437.9 166.6 432 173.9 432H298.1C305.4 432 311.3 437.9 311.3 445.1V474.5L331 507.4H311.3V543.3C311.3 550.6 305.4 556.5 298.1 556.5H173.9C166.6 556.5 160.7 550.6 160.7 543.3Z"
      fill="#FB923C" />
    <path fill-rule="evenodd" clip-rule="evenodd"
      d="M277.5 488.8V501.4H264.2C263.4 505.5 261.8 509.2 259.6 512.5L269 521.9L260 530.8L250.6 521.4C247.3 523.6 243.6 525.2 239.6 526V539.3H226.9V526C222.9 525.2 219.2 523.6 215.9 521.4L206.5 530.8L197.5 521.9L206.9 512.5C204.7 509.2 203.1 505.4 202.3 501.4H189V488.8H202.3C203.1 484.8 204.7 481 206.9 477.7L197.5 468.3L206.4 459.4L215.8 468.8C219.2 466.6 222.9 465 226.9 464.2V450.9H239.6V464.2C243.6 465 247.3 466.6 250.6 468.8L260 459.4L269 468.3L259.6 477.7C261.8 481 263.4 484.8 264.2 488.8H277.5ZM233.3 476.2C222.8 476.2 214.3 484.6 214.3 495.1C214.3 505.6 222.8 514.1 233.3 514.1C243.7 514.1 252.2 505.6 252.2 495.1C252.2 484.6 243.7 476.2 233.3 476.2V476.2Z"
      fill="#FFF7ED" />
    <path d="M586.3 366.7L560.4 359.8L534.4 352.8L553.4 333.9L572.4 314.9L579.4 340.8L586.3 366.7Z" fill="#FDBA74" />
    <path
      d="M521.4 355.3C502.4 341 498.5 314 512.8 295C527 275.9 554.1 272 573.1 286.3C592.2 300.5 596 327.6 581.8 346.6C567.5 365.7 540.5 369.6 521.4 355.3Z"
      fill="#FDBA74" />
    <path fill-rule="evenodd" clip-rule="evenodd"
      d="M558.3 316.6C558.3 325.8 550.8 333.3 541.6 333.3C532.4 333.3 524.9 325.8 524.9 316.6C524.9 307.4 532.4 299.9 541.6 299.9C550.8 299.9 558.3 307.4 558.3 316.6ZM552.3 316.6C552.3 310.7 547.5 305.9 541.6 305.9C535.7 305.9 530.9 310.7 530.9 316.6C530.9 322.5 535.7 327.3 541.6 327.3C547.5 327.3 552.3 322.5 552.3 316.6Z"
      fill="#FFEDD5" />
    <path
      d="M564.1 342.8C563.7 342.8 563.2 342.6 562.9 342.2L550.1 328.8C549.4 328.1 549.5 327 550.2 326.3C550.9 325.6 552 325.7 552.6 326.4L565.4 339.9C566.1 340.5 566 341.7 565.3 342.3C565 342.6 564.6 342.8 564.1 342.8V342.8Z"
      fill="#FFEDD5" />
    <path
      d="M564.1 344.7C563.2 344.7 562.2 344.3 561.5 343.5L553.5 335.1C552.1 333.7 552.2 331.4 553.7 330C555.1 328.6 557.4 328.7 558.8 330.1L566.8 338.5C568.1 340 568.1 342.3 566.6 343.7C565.9 344.4 565 344.7 564.1 344.7Z"
      fill="#FFEDD5" />
    <path d="M535.6 163.8V262.4L497.7 229.5V196.7L535.6 163.8Z" fill="#FB923C" />
    <path
      d="M501.5 262.4C501.5 268.7 496.4 273.8 490.1 273.8H391.5C385.2 273.8 380.1 268.7 380.1 262.4V163.8C380.1 157.5 385.2 152.5 391.5 152.5H490.1C496.4 152.5 501.5 157.5 501.5 163.8V262.4Z"
      fill="#FB923C" />
    <path d="M459.8 213.1L433.2 232.1V194.2L459.8 213.1Z" fill="#FFF7ED" />
    <path
      d="M363.3 322.6C363.3 357.9 334.7 386.5 299.4 386.5C264.1 386.5 235.5 357.9 235.5 322.6C235.5 287.4 264.1 258.8 299.4 258.8C334.7 258.8 363.3 287.4 363.3 322.6Z"
      fill="#FDBA74" />
    <path
      d="M270.4 353.6V345.8C270.4 337.3 277.3 330.4 285.9 330.4H313C321.5 330.4 328.4 337.3 328.4 345.8V353.6H270.4Z"
      fill="#FFF7ED" />
    <path
      d="M299.4 318.7C291.9 318.7 285.9 312.7 285.9 305.2C285.9 297.7 291.9 291.6 299.4 291.6C306.9 291.6 313 297.7 313 305.2C313 312.7 306.9 318.7 299.4 318.7Z"
      fill="#FFF7ED" />
    <path
      d="M369.7 279.7C369.7 293.5 358.6 304.6 344.9 304.6C331.2 304.6 320.1 293.5 320.1 279.7C320.1 266 331.2 254.9 344.9 254.9C358.6 254.9 369.7 266 369.7 279.7Z"
      fill="#F97316" />
    <path fill-rule="evenodd" clip-rule="evenodd"
      d="M165.4 279.8C177.4 279.8 187.1 289.5 187.1 301.5C187.1 313.5 165.4 346.4 165.4 346.4C165.4 346.4 143.6 313.5 143.6 301.5C143.6 289.5 153.4 279.8 165.4 279.8ZM165.4 309.2C168.9 309.2 171.8 306.3 171.8 302.7C171.8 299.2 168.9 296.3 165.4 296.3C161.8 296.3 158.9 299.2 158.9 302.7C158.9 306.3 161.8 309.2 165.4 309.2Z"
      fill="#F97316" />
    <path d="M148.4 112.4H252.3V216.3H148.4V112.4Z" fill="#FB923C" />
    <path d="M158.7 206V122.6H242.1V206H158.7Z" fill="#FED7AA" />
    <path
      d="M218.6 140.9C222.7 140.9 226.1 144.2 226.1 148.3C226.1 152.5 222.7 155.8 218.6 155.8C214.5 155.8 211.2 152.5 211.2 148.3C211.2 144.2 214.5 140.9 218.6 140.9Z"
      fill="#FB923C" />
    <path d="M204.7 180.6L218.1 197.5H191.4H164.8L178.1 180.6L191.4 163.8L204.7 180.6Z" fill="#FB923C" />
    <path d="M225.8 185.7L235.1 197.5H216.4H197.7L207.1 185.7L216.4 173.8L225.8 185.7Z" fill="#FB923C" />
    <path
      d="M345.2 75.1V96C345.2 96 346.5 98.5 347.9 98.5C348.8 98.5 349.6 98.1 350 97.5C351.7 95.3 354.3 93.9 357.3 93.9C362.3 93.9 366.4 98 366.4 103C366.4 108.1 362.3 112.2 357.3 112.2C354.3 112.2 351.7 110.8 350 108.6C349.6 108 348.8 107.6 347.9 107.6C346.5 107.6 345.2 110.1 345.2 110.1V130.9H324.3C323 131.1 321.9 132.2 321.9 133.6C321.9 134.5 322.3 135.2 322.9 135.7C325.1 137.4 326.5 140 326.5 143C326.5 148 322.4 152.1 317.3 152.1C312.3 152.1 308.2 148 308.2 143C308.2 140 309.6 137.4 311.8 135.7C312.4 135.2 312.8 134.5 312.8 133.6C312.8 132.2 311.7 131.1 310.4 130.9H289.5V75.1H345.2Z"
      fill="#F97316" />
    <path
      d="M467.4 403.8C519.5 403.8 561.7 437 561.7 478.1C561.7 507.7 539.6 533.2 507.7 545.1C508.4 546.4 508.9 547.7 509.6 549C515.9 559.4 525 567.4 535.9 572.7C511.8 574.4 489.5 567.2 474.8 552C472.4 552.2 469.9 552.3 467.4 552.3C415.4 552.3 373.2 519.1 373.2 478.1C373.2 437 415.4 403.8 467.4 403.8V403.8Z"
      fill="#FFF3E4" />
    <path
      d="M561.7 478.3C561.6 507.9 539.5 533.3 507.7 545.1C508.4 546.4 508.9 547.7 509.6 549C515.9 559.4 525 567.4 535.9 572.7C511.8 574.4 489.5 567.2 474.8 552C472.4 552.2 469.9 552.3 467.4 552.3C415.5 552.3 373.4 519.2 373.2 478.3H561.7Z"
      fill="#FFEDD5" />
    <path
      d="M507.7 466.2C515 466.2 521 472.1 521 479.4C521 486.7 515 492.6 507.7 492.6C500.4 492.6 494.5 486.7 494.5 479.4C494.5 472.1 500.4 466.2 507.7 466.2Z"
      fill="#FDBA74" />
    <path
      d="M467.2 466.2C474.5 466.2 480.4 472.1 480.4 479.4C480.4 486.7 474.5 492.6 467.2 492.6C459.9 492.6 453.9 486.7 453.9 479.4C453.9 472.1 459.9 466.2 467.2 466.2Z"
      fill="#FDBA74" />
    <path
      d="M426.6 466.2C433.9 466.2 439.8 472.1 439.8 479.4C439.8 486.7 433.9 492.6 426.6 492.6C419.3 492.6 413.4 486.7 413.4 479.4C413.4 472.1 419.3 466.2 426.6 466.2Z"
      fill="#FDBA74" />
    <path d="M520.8 478.3H494.6C495.2 471.5 500.8 466.2 507.7 466.2C514.6 466.2 520.3 471.5 520.8 478.3Z"
      fill="#FED7AA" />
    <path d="M480.3 478.3H454C454.6 471.5 460.2 466.2 467.2 466.2C474.1 466.2 479.7 471.5 480.3 478.3Z"
      fill="#FED7AA" />
    <path d="M439.7 478.3H413.5C414.1 471.5 419.7 466.2 426.6 466.2C433.5 466.2 439.1 471.5 439.7 478.3V478.3Z"
      fill="#FED7AA" />
  </g>
  <defs>
    <clipPath id="clip0_243_237">
      <rect width="1177" height="1080" fill="white" />
    </clipPath>
  </defs>
</svg>