<svg width="155" height="31" viewBox="0 0 155 31" fill="none" xmlns="http://www.w3.org/2000/svg">
  <path d="M3 25.7812V5.21875H15.8917V7.88946H6.10244V14.1546H15.219V16.8153H6.10244V23.1105H16.0122V25.7812H3Z" fill="#f97316" />
  <path d="M36.6022 25.7812V5.21875H49.3534V7.88946H39.7047V14.1546H48.4397V16.8153H39.7047V25.7812H36.6022Z" fill="#f97316" />
  <path d="M53.1687 25.7812V5.21875H66.0604V7.88946H56.2711V14.1546H65.3877V16.8153H56.2711V23.1105H66.1809V25.7812H53.1687Z" fill="#f97316" />
  <path d="M69.1904 7.88946V5.21875H85.1042V7.88946H78.6885V25.7812H75.5961V7.88946H69.1904Z" fill="#f97316" />
  <path d="M105.599 15.5C105.599 17.6954 105.197 19.583 104.394 21.1627C103.591 22.7357 102.49 23.9472 101.091 24.7973C99.6986 25.6406 98.1156 26.0623 96.3418 26.0623C94.5613 26.0623 92.9716 25.6406 91.5727 24.7973C90.1804 23.9472 89.0827 22.7323 88.2795 21.1526C87.4762 19.573 87.0746 17.6888 87.0746 15.5C87.0746 13.3045 87.4762 11.4203 88.2795 9.84731C89.0827 8.26764 90.1804 7.05612 91.5727 6.21274C92.9716 5.36266 94.5613 4.93762 96.3418 4.93762C98.1156 4.93762 99.6986 5.36266 101.091 6.21274C102.49 7.05612 103.591 8.26764 104.394 9.84731C105.197 11.4203 105.599 13.3045 105.599 15.5ZM102.527 15.5C102.527 13.8266 102.256 12.4176 101.713 11.273C101.178 10.1217 100.442 9.25159 99.5045 8.66256C98.5741 8.06684 97.5199 7.76898 96.3418 7.76898C95.1571 7.76898 94.0995 8.06684 93.1691 8.66256C92.2387 9.25159 91.5024 10.1217 90.9602 11.273C90.4247 12.4176 90.157 13.8266 90.157 15.5C90.157 17.1734 90.4247 18.5857 90.9602 19.737C91.5024 20.8816 92.2387 21.7517 93.1691 22.3474C94.0995 22.9365 95.1571 23.231 96.3418 23.231C97.5199 23.231 98.5741 22.9365 99.5045 22.3474C100.442 21.7517 101.178 20.8816 101.713 19.737C102.256 18.5857 102.527 17.1734 102.527 15.5Z" fill="#f97316" />
  <path d="M109.467 25.7812V5.21875H116.796C118.396 5.21875 119.721 5.50992 120.772 6.09225C121.823 6.67459 122.61 7.47112 123.132 8.48184C123.654 9.48586 123.915 10.6171 123.915 11.8754C123.915 13.1405 123.65 14.2784 123.122 15.2891C122.6 16.2932 121.81 17.0897 120.752 17.6787C119.701 18.2611 118.379 18.5522 116.786 18.5522H112.569V15.9217H116.505C117.516 15.9217 118.336 15.7476 118.965 15.3996C119.594 15.0448 120.056 14.5629 120.351 13.9538C120.645 13.3447 120.792 12.6519 120.792 11.8754C120.792 11.099 120.645 10.4096 120.351 9.80715C120.056 9.20473 119.591 8.73284 118.955 8.39147C118.326 8.0501 117.496 7.87942 116.465 7.87942H112.569V25.7812H109.467Z" fill="#f97316" />
  <path d="M130.654 5.21875V25.7812H127.552V5.21875H130.654Z" fill="#f97316" />
  <path d="M136.909 25.7812H133.616L141.016 5.21875H144.6L152 25.7812H148.707L142.893 8.95373H142.733L136.909 25.7812ZM139.698 17.749L145.925 17.7289L146.827 20.3394H138.793L139.698 17.749Z" fill="#f97316" />
  <path d="M32.7869 25.7812V5.21875H20.0358V7.88946H29.6845V14.1546H20.9495V16.8153H29.6845V25.7812H32.7869Z" fill="#f97316" />
</svg>