<svg width="961" height="1080" viewBox="0 0 961 1080" fill="none" xmlns="http://www.w3.org/2000/svg">
<g clip-path="url(#clip0_243_237)">
<path d="M47.1296 308C10.9296 102.6 218.33 85 449.53 99.6C542.33 105.5 728.83 126.2 795.43 193.7C861.03 262 845.53 529.5 747.23 565.1C685.767 587.06 567.599 600.897 452.13 606.886C433.476 607.854 424.13 631.9 476.13 681.9C307.63 640.4 344.63 606.886 344.63 610.229C315.921 610.502 288.746 610.224 264.23 609.4C106.43 604.1 84.7296 521.2 47.1296 308Z" fill="#FFF7ED"/>
<path d="M624.53 889.4C624.53 889.4 536.53 784.3 523.13 766.4C509.83 748.4 538.03 745.2 538.03 745.2L686.13 863.9C714.03 929.3 624.53 889.4 624.53 889.4Z" fill="#EC9568"/>
<path d="M517.63 589.8C517.63 589.8 593.73 541.8 550.23 446.8C526.13 394.2 557.13 261.4 648.73 314.2C740.33 367.1 720.13 312 771.93 341.5C823.73 370.9 843.73 408.6 832.03 445.9C820.33 483.2 816.73 556.4 848.63 574.2C880.43 592 1031.73 688.5 917.13 775.3C802.53 862.1 435.13 746.5 517.63 589.8V589.8Z" fill="#212957"/>
<path d="M722.73 815.6C721.63 870.9 706.13 861.2 678.23 852.5C650.33 843.7 644.83 791.9 644.13 777.5C643.43 763 642.93 687 649.53 632.2C654.23 592.7 652.53 585.4 679.23 577.5C721.43 565.1 723.73 760.3 722.73 815.6V815.6Z" fill="#EA580C"/>
<path d="M658.63 1673.2C658.63 1673.2 650.43 1436.2 630.03 1282.9C609.53 1129.6 613.63 876.2 613.63 876.2H640.23L730.13 982.5C730.13 982.5 711.73 1293.1 707.63 1317.6C703.53 1342.2 705.63 1372.8 715.83 1421.9C726.03 1470.9 701.53 1667.1 701.53 1667.1L658.63 1673.2Z" fill="#9A3412"/>
<path d="M771.03 870.1C771.03 870.1 838.43 955.9 856.83 1033.6C875.23 1111.2 912.03 1301.3 916.13 1315.6C920.23 1329.9 950.83 1419.8 959.03 1442.3C967.23 1464.8 1016.53 1658.2 1016.53 1658.2L961.03 1667.1C961.03 1667.1 877.33 1462.7 863.03 1415.7C848.63 1368.7 808.43 1311.4 808.43 1311.4C808.43 1311.4 695.43 1047.9 668.83 978.4C642.23 908.9 640.23 876.2 640.23 876.2L771.03 870.1Z" fill="#C2410C"/>
<path d="M773.03 579.9C773.03 579.9 814.93 593.2 823.13 607.5C831.33 621.8 815.93 657.5 795.53 708.6C775.13 759.7 756.73 808.8 777.13 859.9C797.63 911 656.83 939.3 614.73 914.4C601.03 906.3 605.53 798.6 605.53 798.6C605.53 798.6 601.43 708.6 599.33 682.1C597.33 655.5 627.93 647.3 654.53 620.8C681.13 594.2 691.33 577.8 691.33 577.8C691.33 577.8 762.83 575.8 773.03 579.9V579.9Z" fill="#F97316"/>
<path d="M871.13 831.2C875.23 886.4 858.93 878.3 830.33 872.1C801.63 866 791.43 814.9 789.43 800.6C787.33 786.3 779.83 710.7 781.23 655.5C782.23 615.6 779.93 608.6 805.73 598.3C846.63 581.9 867.03 776.1 871.13 831.2V831.2Z" fill="#EA580C"/>
<path d="M557.63 754.7L514.93 655.1C512.73 650.1 515.13 645.8 520.23 645.6L565.33 643C570.43 642.8 576.33 646.6 578.43 651.5L621.13 751.2C623.23 756.1 620.83 760.4 615.83 760.7L570.73 763.2C565.63 763.5 559.73 759.7 557.63 754.7Z" fill="#FFEDD5"/>
<path d="M858.83 846.1C858.83 846.1 857.33 863.7 857.33 867.5C857.33 871.4 840.43 876 822.83 876C805.23 876 674.93 800.9 662.63 795.5C650.43 790.1 622.03 782.5 615.13 781.7C608.23 780.9 602.93 761.8 606.73 749.5C609.23 741.4 611.83 734.3 615.63 732C617.63 730.8 619.93 730.8 622.83 732.6C631.23 738 664.93 767.1 664.93 767.1C664.93 767.1 743.93 781.7 775.33 795.5C806.73 809.3 843.53 826.1 858.83 846.1Z" fill="#F7B68B"/>
<path d="M575.33 737.2L615.63 732L606.73 749.5L612.13 776.3L589.83 780.2C589.83 780.2 586.83 776.3 590.63 774.8C594.43 773.3 599.83 771 599.83 771C599.83 771 589.13 769.4 584.53 768.7C579.93 767.9 579.13 766.4 579.13 764.1C579.13 761.8 583.73 760.2 583.73 760.2C583.73 760.2 575.33 757.2 574.53 754.9C573.73 752.6 572.23 749.5 573.73 747.2C575.33 744.9 573.03 738.8 575.33 737.2V737.2Z" fill="#EC9568"/>
<path d="M767.93 479.7C767.93 479.7 754.13 548.7 763.33 573.2C772.53 597.8 700.53 579.4 700.53 579.4C700.53 579.4 703.53 522.7 705.13 510.4C706.63 498.1 767.93 479.7 767.93 479.7Z" fill="#F7B68B"/>
<path d="M702.43 545.8C703.33 531.1 704.43 516.1 705.13 510.4C706.63 498.1 767.93 479.7 767.93 479.7C767.93 479.7 766.93 485 765.53 493.2C763.996 494.667 762.363 496.133 760.63 497.6C745.43 510.5 720.43 541.6 702.43 545.8Z" fill="#EC9568"/>
<path d="M528.93 710.3L548.03 684.5L577.13 657.3C577.13 657.3 580.93 661.4 576.33 668.1C571.83 674.8 554.93 694.6 554.93 694.6L546.53 708.4L544.93 711.2C544.93 711.2 533.03 723.4 528.93 710.3V710.3Z" fill="#F0BF97"/>
<path d="M544.33 705C544.33 705 544.13 713.8 546.03 714.4C547.93 715.1 550.63 712 554.83 708.8C559.03 705.5 571.33 695.3 571.33 695.3L590.33 683.8C590.33 683.8 588.93 692.2 586.63 695C583.43 699 575.03 706.5 575.03 706.5L557.73 724.7C557.73 724.7 543.83 735.8 542.23 732.8C540.63 729.8 542.03 725.3 539.03 723.6C536.03 721.8 529.03 715.6 544.33 705V705Z" fill="#F0BF97"/>
<path d="M567.53 722.9L579.63 712.3C579.63 712.3 593.63 702.3 594.53 704C595.43 705.7 595.43 705.7 595.43 705.7C595.43 705.7 592.33 709.7 588.13 714.4C586.53 716.1 579.23 723.7 577.33 725.4C570.53 731.7 564.73 741.3 563.53 741.9C562.23 742.6 546.93 742.9 567.53 722.9V722.9Z" fill="#F0BF97"/>
<path d="M521.53 712.5L521.13 687L536.93 658C536.93 658 540.93 662.5 537.53 672.5C534.13 682.4 534.23 683.5 533.13 684.6C532.13 685.7 536.33 702 536.33 702C536.33 702 522.73 717.8 521.53 712.5V712.5Z" fill="#F0BF97"/>
<path d="M553.23 721.1C555.93 721.8 555.83 727.2 559.13 729.4C561.93 731.3 568.73 729.6 567.33 733.9C566.23 737.6 562.63 749.5 554.93 756.2C547.23 762.9 536.33 762.6 529.53 762.9C522.73 763.1 518.73 753.2 518.73 753.2C518.73 753.2 520.43 738.1 520.03 722C519.63 705.8 527.93 705.3 527.93 705.3L541.03 720.3C541.03 720.3 548.33 719.8 553.23 721.1V721.1Z" fill="#F0BF97"/>
<path d="M766.43 892C766.43 892 785.33 910.9 807.33 956C820.83 983.6 835.43 1021 847.63 1069.8C889.73 1238.1 898.23 1301.3 898.23 1301.3C898.23 1301.3 949.03 1442.3 973.33 1538.9C1002.23 1653.4 997.83 1635.4 997.83 1635.4" stroke="#9A3412" stroke-width="4.3"/>
<path d="M735.73 912.8C735.73 912.8 767.83 974.2 813.23 969.4" stroke="#9A3412" stroke-width="4.3"/>
<path d="M688.23 435.3C725.03 458.3 772.53 450.6 772.53 446C772.53 441.4 780.23 429.2 786.33 444.5C792.43 459.8 780.23 472.1 763.33 482.8C746.53 493.5 717.33 521.1 698.93 522.7C680.63 524.2 677.53 510.4 669.83 492C662.23 473.6 666.83 410.8 666.83 410.8C665.23 420 679.03 429.6 688.23 435.3V435.3Z" fill="#F7B68B"/>
<path d="M587.23 206.4C587.23 199.5 592.83 193.9 599.73 193.9H733.33C740.23 193.9 745.83 199.5 745.83 206.4V310.8C745.83 317.7 740.23 323.3 733.33 323.3H637.33L608.13 352.5V323.3H599.73C592.83 323.3 587.23 317.7 587.23 310.8V206.4Z" fill="#FB923C"/>
<path d="M612.23 231.5H720.83V239.8H612.23V231.5Z" fill="#FFF7ED"/>
<path d="M612.23 252.3H720.83V260.7H612.23V252.3Z" fill="#FFF7ED"/>
<path d="M612.23 273.2H720.83V281.6H612.23V273.2Z" fill="#FFF7ED"/>
<path d="M89.8296 540.2V442C89.8296 434.8 95.7296 428.9 103.03 428.9H227.23C234.53 428.9 240.43 434.8 240.43 442V471.4L260.13 504.3H240.43V540.2C240.43 547.5 234.53 553.4 227.23 553.4H103.03C95.7296 553.4 89.8296 547.5 89.8296 540.2Z" fill="#FB923C"/>
<path fill-rule="evenodd" clip-rule="evenodd" d="M206.63 485.7V498.3H193.33C192.53 502.4 190.93 506.1 188.73 509.4L198.13 518.8L189.13 527.7L179.73 518.3C176.43 520.5 172.73 522.1 168.73 522.9V536.2H156.03V522.9C152.03 522.1 148.33 520.5 145.03 518.3L135.63 527.7L126.63 518.8L136.03 509.4C133.83 506.1 132.23 502.3 131.43 498.3H118.13V485.7H131.43C132.23 481.7 133.83 477.9 136.03 474.6L126.63 465.2L135.53 456.3L144.93 465.7C148.33 463.5 152.03 461.9 156.03 461.1V447.8H168.73V461.1C172.73 461.9 176.43 463.5 179.73 465.7L189.13 456.3L198.13 465.2L188.73 474.6C190.93 477.9 192.53 481.7 193.33 485.7H206.63ZM162.43 473.1C151.93 473.1 143.43 481.5 143.43 492C143.43 502.5 151.93 511 162.43 511C172.83 511 181.33 502.5 181.33 492C181.33 481.5 172.83 473.1 162.43 473.1V473.1Z" fill="#FFF7ED"/>
<path d="M515.43 363.6L489.53 356.7L463.53 349.7L482.53 330.8L501.53 311.8L508.53 337.7L515.43 363.6Z" fill="#FDBA74"/>
<path d="M450.53 352.2C431.53 337.9 427.63 310.9 441.93 291.9C456.13 272.8 483.23 268.9 502.23 283.2C521.33 297.4 525.13 324.5 510.93 343.5C496.63 362.6 469.63 366.5 450.53 352.2Z" fill="#FDBA74"/>
<path fill-rule="evenodd" clip-rule="evenodd" d="M487.43 313.5C487.43 322.7 479.93 330.2 470.73 330.2C461.53 330.2 454.03 322.7 454.03 313.5C454.03 304.3 461.53 296.8 470.73 296.8C479.93 296.8 487.43 304.3 487.43 313.5ZM481.43 313.5C481.43 307.6 476.63 302.8 470.73 302.8C464.83 302.8 460.03 307.6 460.03 313.5C460.03 319.4 464.83 324.2 470.73 324.2C476.63 324.2 481.43 319.4 481.43 313.5Z" fill="#FFEDD5"/>
<path d="M493.23 339.7C492.83 339.7 492.33 339.5 492.03 339.1L479.23 325.7C478.53 325 478.63 323.9 479.33 323.2C480.03 322.5 481.13 322.6 481.73 323.3L494.53 336.8C495.23 337.4 495.13 338.6 494.43 339.2C494.13 339.5 493.73 339.7 493.23 339.7V339.7Z" fill="#FFEDD5"/>
<path d="M493.23 341.6C492.33 341.6 491.33 341.2 490.63 340.4L482.63 332C481.23 330.6 481.33 328.3 482.83 326.9C484.23 325.5 486.53 325.6 487.93 327L495.93 335.4C497.23 336.9 497.23 339.2 495.73 340.6C495.03 341.3 494.13 341.6 493.23 341.6Z" fill="#FFEDD5"/>
<path d="M464.73 160.7V259.3L426.83 226.4V193.6L464.73 160.7Z" fill="#FB923C"/>
<path d="M430.63 259.3C430.63 265.6 425.53 270.7 419.23 270.7H320.63C314.33 270.7 309.23 265.6 309.23 259.3V160.7C309.23 154.4 314.33 149.4 320.63 149.4H419.23C425.53 149.4 430.63 154.4 430.63 160.7V259.3Z" fill="#FB923C"/>
<path d="M388.93 210L362.33 229V191.1L388.93 210Z" fill="#FFF7ED"/>
<path d="M292.43 319.5C292.43 354.8 263.83 383.4 228.53 383.4C193.23 383.4 164.63 354.8 164.63 319.5C164.63 284.3 193.23 255.7 228.53 255.7C263.83 255.7 292.43 284.3 292.43 319.5Z" fill="#FDBA74"/>
<path d="M199.53 350.5V342.7C199.53 334.2 206.43 327.3 215.03 327.3H242.13C250.63 327.3 257.53 334.2 257.53 342.7V350.5H199.53Z" fill="#FFF7ED"/>
<path d="M228.53 315.6C221.03 315.6 215.03 309.6 215.03 302.1C215.03 294.6 221.03 288.5 228.53 288.5C236.03 288.5 242.13 294.6 242.13 302.1C242.13 309.6 236.03 315.6 228.53 315.6Z" fill="#FFF7ED"/>
<path d="M298.83 276.6C298.83 290.4 287.73 301.5 274.03 301.5C260.33 301.5 249.23 290.4 249.23 276.6C249.23 262.9 260.33 251.8 274.03 251.8C287.73 251.8 298.83 262.9 298.83 276.6Z" fill="#F97316"/>
<path fill-rule="evenodd" clip-rule="evenodd" d="M94.5296 276.7C106.53 276.7 116.23 286.4 116.23 298.4C116.23 310.4 94.5296 343.3 94.5296 343.3C94.5296 343.3 72.7296 310.4 72.7296 298.4C72.7296 286.4 82.5296 276.7 94.5296 276.7ZM94.5296 306.1C98.0296 306.1 100.93 303.2 100.93 299.6C100.93 296.1 98.0296 293.2 94.5296 293.2C90.9296 293.2 88.0296 296.1 88.0296 299.6C88.0296 303.2 90.9296 306.1 94.5296 306.1Z" fill="#F97316"/>
<path d="M77.5296 109.3H181.43V213.2H77.5296V109.3Z" fill="#FB923C"/>
<path d="M87.8297 202.9V119.5H171.23V202.9H87.8297Z" fill="#FED7AA"/>
<path d="M147.73 137.8C151.83 137.8 155.23 141.1 155.23 145.2C155.23 149.4 151.83 152.7 147.73 152.7C143.63 152.7 140.33 149.4 140.33 145.2C140.33 141.1 143.63 137.8 147.73 137.8Z" fill="#FB923C"/>
<path d="M133.83 177.5L147.23 194.4H120.53H93.9296L107.23 177.5L120.53 160.7L133.83 177.5Z" fill="#FB923C"/>
<path d="M154.93 182.6L164.23 194.4H145.53H126.83L136.23 182.6L145.53 170.7L154.93 182.6Z" fill="#FB923C"/>
<path d="M274.33 72V92.9C274.33 92.9 275.63 95.4 277.03 95.4C277.93 95.4 278.73 95 279.13 94.4C280.83 92.2 283.43 90.8 286.43 90.8C291.43 90.8 295.53 94.9 295.53 99.9C295.53 105 291.43 109.1 286.43 109.1C283.43 109.1 280.83 107.7 279.13 105.5C278.73 104.9 277.93 104.5 277.03 104.5C275.63 104.5 274.33 107 274.33 107V127.8H253.43C252.13 128 251.03 129.1 251.03 130.5C251.03 131.4 251.43 132.1 252.03 132.6C254.23 134.3 255.63 136.9 255.63 139.9C255.63 144.9 251.53 149 246.43 149C241.43 149 237.33 144.9 237.33 139.9C237.33 136.9 238.73 134.3 240.93 132.6C241.53 132.1 241.93 131.4 241.93 130.5C241.93 129.1 240.83 128 239.53 127.8H218.63V72H274.33Z" fill="#F97316"/>
<path d="M396.53 400.7C448.63 400.7 490.83 433.9 490.83 475C490.83 504.6 468.73 530.1 436.83 542C437.53 543.3 438.03 544.6 438.73 545.9C445.03 556.3 454.13 564.3 465.03 569.6C440.93 571.3 418.63 564.1 403.93 548.9C401.53 549.1 399.03 549.2 396.53 549.2C344.53 549.2 302.33 516 302.33 475C302.33 433.9 344.53 400.7 396.53 400.7V400.7Z" fill="#FFF3E4"/>
<path d="M490.83 475.2C490.73 504.8 468.63 530.2 436.83 542C437.53 543.3 438.03 544.6 438.73 545.9C445.03 556.3 454.13 564.3 465.03 569.6C440.93 571.3 418.63 564.1 403.93 548.9C401.53 549.1 399.03 549.2 396.53 549.2C344.63 549.2 302.53 516.1 302.33 475.2H490.83Z" fill="#FFEDD5"/>
<path d="M436.83 463.1C444.13 463.1 450.13 469 450.13 476.3C450.13 483.6 444.13 489.5 436.83 489.5C429.53 489.5 423.63 483.6 423.63 476.3C423.63 469 429.53 463.1 436.83 463.1Z" fill="#FDBA74"/>
<path d="M396.33 463.1C403.63 463.1 409.53 469 409.53 476.3C409.53 483.6 403.63 489.5 396.33 489.5C389.03 489.5 383.03 483.6 383.03 476.3C383.03 469 389.03 463.1 396.33 463.1Z" fill="#FDBA74"/>
<path d="M355.73 463.1C363.03 463.1 368.93 469 368.93 476.3C368.93 483.6 363.03 489.5 355.73 489.5C348.43 489.5 342.53 483.6 342.53 476.3C342.53 469 348.43 463.1 355.73 463.1Z" fill="#FDBA74"/>
<path d="M449.93 475.2H423.73C424.33 468.4 429.93 463.1 436.83 463.1C443.73 463.1 449.43 468.4 449.93 475.2Z" fill="#FED7AA"/>
<path d="M409.43 475.2H383.13C383.73 468.4 389.33 463.1 396.33 463.1C403.23 463.1 408.83 468.4 409.43 475.2Z" fill="#FED7AA"/>
<path d="M368.83 475.2H342.63C343.23 468.4 348.83 463.1 355.73 463.1C362.63 463.1 368.23 468.4 368.83 475.2V475.2Z" fill="#FED7AA"/>
</g>
<defs>
<clipPath id="clip0_243_237">
<rect width="961" height="1080" fill="white"/>
</clipPath>
</defs>
</svg>
