<svg width="512" height="512" viewBox="0 0 512 512" fill="none" xmlns="http://www.w3.org/2000/svg">
<g clip-path="url(#clip0_211_237)">
<path d="M237.027 105.133H274.527V216.133L359.527 144.633L383.527 173.133L308.027 236.633H407.027V274.633H307.027L383.527 338.633L359.527 367.133L274.527 296.133V407.133H237.027V296.133L152.527 367.133L128.527 338.633L204.527 274.633H105.027V237.133H204.527L128.027 173.633L152.027 144.633L237.027 215.633V105.133Z" fill="#F78C01"/>
<path d="M406.838 152.59L382.737 124.019L409.727 101.252L433.828 129.823L406.838 152.59Z" fill="#F78C01"/>
<path d="M72.6219 237.348L72.6219 274.727L37.3121 274.727L37.3121 237.348L72.6219 237.348Z" fill="#F78C01"/>
<path d="M127.255 124.447L103.25 153.1L76.1837 130.423L100.189 101.771L127.255 124.447Z" fill="#F78C01"/>
<path d="M273.907 36.6326L273.907 74.0117L238.597 74.0117L238.597 36.6326L273.907 36.6326Z" fill="#F78C01"/>
<path d="M273.907 436.633L273.907 474.012L238.597 474.012L238.597 436.633L273.907 436.633Z" fill="#F78C01"/>
<path d="M473.622 237.348L473.622 274.727L438.312 274.727L438.312 237.348L473.622 237.348Z" fill="#F78C01"/>
<path d="M129.052 384.782L100.339 408.715L77.731 381.592L106.443 357.659L129.052 384.782Z" fill="#F78C01"/>
<path d="M436.007 382.139L412.04 410.823L384.944 388.183L408.911 359.499L436.007 382.139Z" fill="#F78C01"/>
</g>
<defs>
<clipPath id="clip0_211_237">
<rect width="512" height="512" rx="256" fill="white"/>
</clipPath>
</defs>
</svg>
